<svg xmlns="http://www.w3.org/2000/svg" width="334.314" height="400.242" viewBox="0 0 334.314 400.242">
  <path id="Icon_simple-sitepoint" data-name="Icon simple-sitepoint" d="M11.2,175.656l29.534,28.15,93.356,85.735,40.024-38.206a13.411,13.411,0,0,0-.767-16.427L136.6,203.189l.167-.083L97.222,165.316a13.138,13.138,0,0,1,.35-17.994L204.137,45.994,155.874,0,11.271,137.383a26.2,26.2,0,0,0,0,38.273ZM329,224.636l-29.518-28.2-93.306-85.752L165.964,148.89a12.9,12.9,0,0,0,.75,16.427l36.772,31.536h-.1l39.507,37.773a12.844,12.844,0,0,1-.484,17.744L135.829,353.68l48.546,46.561L328.962,262.859a26.173,26.173,0,0,0,0-38.273l.033.05Z" transform="translate(-2.966)" fill="#717171"/>
</svg>
